HIERARCHY
ROOT Hips
{
	OFFSET 0.000000 0.000000 0.000000
	CHANNELS 6 Xposition Yposition Zposition Xrotation Yrotation Zrotation
	JOINT LeftUpLeg_virtual
	{
		OFFSET 0.000000 0.000000 0.000000
		CHANNELS 3 Xrotation Yrotation Zrotation
		JOINT LeftUpLeg
		{
			OFFSET 13.026900 -6.336304 -1.092800
			CHANNELS 3 Xrotation Yrotation Zrotation
			JOINT LeftLeg
			{
				OFFSET 0.524474 -46.096886 9.782700
				CHANNELS 3 Xrotation Yrotation Zrotation
				JOINT LeftFoot
				{
					OFFSET -0.524474 -53.427422 -12.948200
					CHANNELS 3 Xrotation Yrotation Zrotation
					JOINT LeftToeBase
					{
						OFFSET 0.192200 -14.009700 16.364100
						CHANNELS 3 Xrotation Yrotation Zrotation
						JOINT LeftToe_End
						{
							OFFSET -1.784700 -0.561700 9.474800
							CHANNELS 3 Xrotation Yrotation Zrotation
							End Site
							{
								OFFSET 0 0 0
							}
						}
					}
				}
			}
		}
	}
	JOINT RightUpLeg_virtual
	{
		OFFSET 0.000000 0.000000 0.000000
		CHANNELS 3 Xrotation Yrotation Zrotation
		JOINT RightUpLeg
		{
			OFFSET -12.883000 -6.336304 -1.092800
			CHANNELS 3 Xrotation Yrotation Zrotation
			JOINT RightLeg
			{
				OFFSET -0.524587 -46.096825 9.782800
				CHANNELS 3 Xrotation Yrotation Zrotation
				JOINT RightFoot
				{
					OFFSET 0.524587 -53.427383 -12.948300
					CHANNELS 3 Xrotation Yrotation Zrotation
					JOINT RightToeBase
					{
						OFFSET -0.192200 -14.009700 16.364100
						CHANNELS 3 Xrotation Yrotation Zrotation
						JOINT RightToe_End
						{
							OFFSET 1.784700 -0.561700 9.474800
							CHANNELS 3 Xrotation Yrotation Zrotation
							End Site
							{
								OFFSET 0 0 0
							}
						}
					}
				}
			}
		}
	}
	JOINT Spine_virtual
	{
		OFFSET 0.000000 0.000000 0.000000
		CHANNELS 3 Xrotation Yrotation Zrotation
		JOINT Spine
		{
			OFFSET 0.072000 7.257294 -0.789700
			CHANNELS 3 Xrotation Yrotation Zrotation
			JOINT Spine1
			{
				OFFSET 0.000000 12.508769 -0.658067
				CHANNELS 3 Xrotation Yrotation Zrotation
				JOINT Spine1_split
				{
					OFFSET 0.000000 12.508769 -0.658067
					CHANNELS 3 Xrotation Yrotation Zrotation
					JOINT Spine2
					{
						OFFSET 0.000000 12.508769 -0.658067
						CHANNELS 3 Xrotation Yrotation Zrotation
						JOINT Neck_virtual
						{
							OFFSET 0.000000 0.000000 0.000000
							CHANNELS 3 Xrotation Yrotation Zrotation
							JOINT Neck
							{
								OFFSET 0.000000 14.033295 7.520400
								CHANNELS 3 Xrotation Yrotation Zrotation
								JOINT Head
								{
									OFFSET 0.000000 8.198502 5.703100
									CHANNELS 3 Xrotation Yrotation Zrotation
									JOINT HeadTop_End
									{
										OFFSET 0.000000 17.760803 13.332701
										CHANNELS 3 Xrotation Yrotation Zrotation
										End Site
										{
											OFFSET 0 0 0
										}
									}
								}
							}
						}
						JOINT LeftShoulder_virtual
						{
							OFFSET 0.000000 0.000000 0.000000
							CHANNELS 3 Xrotation Yrotation Zrotation
							JOINT LeftShoulder
							{
								OFFSET 6.292450 5.785301 -0.669000
								CHANNELS 3 Xrotation Yrotation Zrotation
								JOINT LeftShoulder_split
								{
									OFFSET 6.292450 5.785301 -0.669000
									CHANNELS 3 Xrotation Yrotation Zrotation
									JOINT LeftArm
									{
										OFFSET 13.907140 -6.093903 1.965100
										CHANNELS 3 Xrotation Yrotation Zrotation
										JOINT LeftForeArm
										{
											OFFSET 34.140198 0.000000 0.000000
											CHANNELS 3 Xrotation Yrotation Zrotation
											JOINT LeftHand
											{
												OFFSET 40.960209 0.000000 0.000000
												CHANNELS 3 Xrotation Yrotation Zrotation
												End Site
												{
													OFFSET 0 0 0
												}
											}
										}
									}
								}
							}
						}
						JOINT RightShoulder_virtual
						{
							OFFSET 0.000000 0.000000 0.000000
							CHANNELS 3 Xrotation Yrotation Zrotation
							JOINT RightShoulder
							{
								OFFSET -6.292450 5.785301 -0.669000
								CHANNELS 3 Xrotation Yrotation Zrotation
								JOINT RightShoulder_split
								{
									OFFSET -6.292450 5.785301 -0.669000
									CHANNELS 3 Xrotation Yrotation Zrotation
									JOINT RightArm
									{
										OFFSET -13.907140 -6.093903 1.965100
										CHANNELS 3 Xrotation Yrotation Zrotation
										JOINT RightForeArm
										{
											OFFSET -34.140198 0.000000 0.000000
											CHANNELS 3 Xrotation Yrotation Zrotation
											JOINT RightHand
											{
												OFFSET -40.960209 0.000000 0.000000
												CHANNELS 3 Xrotation Yrotation Zrotation
												End Site
												{
													OFFSET 0 0 0
												}
											}
										}
									}
								}
							}
						}
					}
				}
			}
		}
	}
}
MOTION
Frames: 7
Frame Time: 0.03333333
0.445532 114.425499 3.711315 0.000000 0.000000 0.000000 0.084124 -1.340435 0.918729 -4.974032 11.148082 9.553712 9.658589 -8.455032 -2.157727 -5.451445 -2.772206 -6.640555 -0.577261 0.060049 -0.686597 0.000000 0.000000 0.000000 0.977346 -0.536717 0.393919 -4.046127 -4.803932 -13.595498 13.860696 8.007281 3.402020 -2.546925 -3.901716 4.233370 -0.304956 -0.069266 0.541270 0.000000 0.000000 0.000000 -0.271636 -2.391691 0.414539 2.475556 0.981677 0.829580 0.831796 0.705459 0.249290 1.715605 2.637238 -0.238248 0.000000 0.000000 0.000000 1.198830 0.576467 -0.201697 -0.440294 -0.351687 -2.585252 -4.272644 -12.027817 5.650575 0.000000 0.000000 0.000000 0.852071 0.436252 0.285456 0.719417 -1.319503 -10.842602 -0.038302 0.117266 -2.837214 8.363591 -18.476778 -59.380292 2.077100 -26.224506 1.160048 0.000000 0.000000 0.000000 0.423213 0.435276 0.000329 0.638782 3.598085 14.532961 -0.966213 1.394004 0.305811 6.969171 4.620256 62.373458 -0.140421 31.052980 -0.244158 0.000000 0.000000 0.000000 
0.434027 114.557098 3.622131 0.000000 0.000000 0.000000 0.390365 -1.073438 0.946637 -5.210917 10.151971 9.224995 9.935677 -8.125393 -1.781430 -5.561756 -2.319892 -6.417472 -0.701656 0.098904 -0.823185 0.000000 0.000000 0.000000 1.064956 -0.766548 0.413172 -4.191100 -5.153459 -13.672973 13.127382 7.858766 3.280676 -2.059588 -3.583191 4.502426 -0.779230 -0.154243 0.652342 0.000000 0.000000 0.000000 -0.157085 -2.267966 0.301940 2.107724 0.939094 0.859137 0.855054 0.727788 0.358633 1.541935 3.026572 -0.012485 0.000000 0.000000 0.000000 1.102191 0.619868 -0.121826 -0.260942 -0.328812 -2.610125 -4.434720 -11.885557 5.386615 0.000000 0.000000 0.000000 0.860197 0.500649 0.352821 0.703873 -1.010832 -10.856593 0.956220 -0.343997 -2.461037 8.068450 -18.646044 -59.024022 2.508450 -24.354499 1.128451 0.000000 0.000000 0.000000 0.428744 0.455984 -0.019423 0.619214 3.812309 14.757423 -0.426140 1.770462 0.729742 6.937923 3.599463 62.490050 0.056194 29.971201 -0.126023 0.000000 0.000000 0.000000 
0.307307 114.731827 3.307800 0.000000 0.000000 0.000000 0.923341 -1.324525 0.974126 -5.817820 9.214788 9.028582 10.560675 -7.619758 -1.369793 -5.672876 -1.546042 -6.454456 -0.692678 0.160484 -0.907469 0.000000 0.000000 0.000000 1.365425 -1.164432 0.431651 -4.776438 -5.273860 -13.696580 12.479181 7.652016 3.142877 -2.021337 -3.305361 4.666519 -1.035104 -0.170759 0.775184 0.000000 0.000000 0.000000 0.277458 -2.219474 0.164308 1.721822 0.877586 0.836667 0.908745 0.717198 0.504416 1.435270 2.420065 0.174473 0.000000 0.000000 0.000000 1.037785 0.645511 -0.009899 0.071818 -0.245947 -2.640841 -4.854969 -11.506828 5.032260 0.000000 0.000000 0.000000 0.935560 0.536198 0.420912 0.699976 -0.646753 -10.975152 1.391989 -0.719369 -1.907204 7.226975 -19.383225 -58.382640 2.672429 -23.068884 1.132764 0.000000 0.000000 0.000000 0.491892 0.482839 0.036020 0.604491 4.137365 15.032469 -0.661493 2.264396 0.616000 7.266274 3.862062 62.358234 0.172651 29.382316 0.027640 0.000000 0.000000 0.000000 
0.137825 114.768295 2.713310 0.000000 0.000000 0.000000 1.679949 -1.793204 0.978281 -7.085306 8.449028 9.042808 11.790698 -6.989768 -0.988466 -5.916794 -0.607060 -6.730623 -0.524525 0.236385 -0.907317 0.000000 0.000000 0.000000 1.986007 -1.655362 0.427592 -6.057233 -5.218008 -13.652592 12.278549 7.406118 3.002438 -2.486120 -3.068241 4.741086 -1.069975 -0.131383 0.860010 0.000000 0.000000 0.000000 0.997535 -2.249024 0.059362 1.401542 0.827238 0.818941 1.001751 0.722803 0.632845 1.391537 1.498955 0.199414 0.000000 0.000000 0.000000 1.009904 0.681800 0.095646 0.432249 -0.147534 -2.593804 -5.626331 -10.872601 4.556313 0.000000 0.000000 0.000000 1.028167 0.580248 0.439068 0.696750 -0.372574 -11.063290 1.337572 -0.804948 -1.425582 5.566287 -20.005650 -57.589833 2.610386 -23.726069 1.194969 0.000000 0.000000 0.000000 0.598329 0.546367 0.116899 0.605606 4.500425 15.213159 -1.275711 2.763213 0.091068 7.304362 5.062252 61.664177 0.198219 30.422550 0.202344 0.000000 0.000000 0.000000 
-0.030270 114.462234 1.778366 0.000000 0.000000 0.000000 2.709999 -2.262885 0.939504 -9.458689 7.880490 9.256540 13.932080 -6.332296 -0.650258 -6.337882 0.279497 -7.252375 -0.281349 0.318715 -0.811529 0.000000 0.000000 0.000000 3.025801 -2.113466 0.384835 -8.298302 -5.115478 -13.604981 13.143025 7.226322 2.876828 -3.428119 -2.793625 4.862786 -1.173092 -0.045761 0.866907 0.000000 0.000000 0.000000 2.096155 -2.254969 -0.012247 1.187988 0.812472 0.868740 1.107395 0.776036 0.687586 1.215353 0.720359 0.181899 0.000000 0.000000 0.000000 1.029535 0.764984 0.144134 0.639430 -0.061314 -2.433746 -6.858415 -10.002050 3.985812 0.000000 0.000000 0.000000 1.090475 0.662090 0.386424 0.695639 -0.330481 -10.932070 1.238481 -0.650621 -0.939939 2.757719 -19.926455 -56.869579 2.457623 -26.935806 1.277463 0.000000 0.000000 0.000000 0.750142 0.665896 0.160586 0.611454 4.825536 15.235210 -1.565998 3.011216 -0.604912 6.304524 6.863715 60.131182 0.140555 33.915110 0.431291 0.000000 0.000000 0.000000 
-0.173688 113.546654 0.466869 0.000000 0.000000 0.000000 4.072500 -2.581875 0.856372 -13.269700 7.359515 9.620401 17.283256 -5.779191 -0.385217 -6.930548 0.922360 -7.948382 -0.181714 0.387592 -0.606702 0.000000 0.000000 0.000000 4.561604 -2.398493 0.321126 -11.815417 -5.026077 -13.633794 15.540381 7.138117 2.742477 -4.804078 -2.409380 5.014454 -1.445914 0.060944 0.790044 0.000000 0.000000 0.000000 3.584265 -2.194423 -0.016632 1.129728 0.836297 0.995929 1.213514 0.901153 0.633410 0.953463 -0.031687 0.187951 0.000000 0.000000 0.000000 1.103063 0.919438 0.116709 0.566753 0.028752 -2.170731 -8.600407 -8.899151 3.329359 0.000000 0.000000 0.000000 1.108603 0.800337 0.265709 0.683625 -0.556870 -10.442285 1.233684 -0.389050 -0.525730 -1.813836 -19.117168 -56.469337 2.324388 -32.866157 1.311716 0.000000 0.000000 0.000000 0.917152 0.841564 0.126462 0.625039 5.061959 14.979156 -1.343806 3.388883 -1.242007 3.485805 8.771970 57.628014 0.034250 39.798324 0.702205 0.000000 0.000000 0.000000 
-0.334909 111.970360 -1.167473 0.000000 0.000000 0.000000 5.866552 -2.706337 0.784950 -18.577018 6.717387 10.039617 21.910559 -5.285310 -0.181570 -7.680713 1.335851 -8.636147 -0.227378 0.430312 -0.344880 0.000000 0.000000 0.000000 6.524789 -2.599400 0.277875 -16.834386 -5.039624 -13.804222 19.773685 7.122930 2.633671 -6.528795 -1.936951 5.157182 -1.806514 0.163080 0.661449 0.000000 0.000000 0.000000 5.502687 -2.101549 0.022092 1.210506 0.897004 1.169718 1.313542 1.083064 0.496238 0.643114 -0.429232 0.227850 0.000000 0.000000 0.000000 1.221463 1.115814 0.016600 0.155722 0.091795 -1.842977 -10.786263 -7.612382 2.638151 0.000000 0.000000 0.000000 1.109779 0.995331 0.110742 0.651464 -1.011906 -9.609272 1.195248 -0.218321 -0.425259 -8.136599 -17.916500 -56.342312 2.256703 -41.025740 1.290607 0.000000 0.000000 0.000000 1.061086 1.045271 0.032123 0.622814 5.251134 14.485899 -0.770570 3.750914 -1.454353 -1.706413 10.722622 54.272328 -0.085637 47.539168 1.008653 0.000000 0.000000 0.000000 
